<mxfile host="Electron" agent="Mozilla/5.0 (Macintosh; Intel Mac OS X 10_15_7) AppleWebKit/537.36 (KHTML, like Gecko) draw.io/27.0.9 Chrome/134.0.6998.205 Electron/35.4.0 Safari/537.36" version="27.0.9">
  <diagram name="Level 1 DFD" id="0">
    <mxGraphModel dx="1693" dy="1094" grid="1" gridSize="10" guides="1" tooltips="1" connect="1" arrows="1" fold="1" page="1" pageScale="1" pageWidth="1654" pageHeight="1169" math="0" shadow="0">
      <root>
        <mxCell id="0" />
        <mxCell id="1" parent="0" />
        <mxCell id="2" value="User" style="shape=ellipse;fillColor=#FFFFFF;strokeColor=#000000;" parent="1" vertex="1">
          <mxGeometry x="80" y="220" width="100" height="60" as="geometry" />
        </mxCell>
        <mxCell id="3" value="Select City&#xa;(ComboboxForm)" style="shape=rectangle;rounded=1;fillColor=#FFFFFF;strokeColor=#000000;" parent="1" vertex="1">
          <mxGeometry x="40" y="350" width="180" height="60" as="geometry" />
        </mxCell>
        <mxCell id="4" value="Display Dashboard&#xa;(Info Page fetching)" style="shape=rectangle;rounded=1;fillColor=#FFFFFF;strokeColor=#000000;" parent="1" vertex="1">
          <mxGeometry x="324" y="350" width="180" height="60" as="geometry" />
        </mxCell>
        <mxCell id="5" value="Fetch City Data" style="shape=rectangle;rounded=1;fillColor=#FFFFFF;strokeColor=#000000;" parent="1" vertex="1">
          <mxGeometry x="630" y="250" width="150" height="50" as="geometry" />
        </mxCell>
        <mxCell id="6" value="Fetch Weather Data" style="shape=rectangle;rounded=1;fillColor=#FFFFFF;strokeColor=#000000;" parent="1" vertex="1">
          <mxGeometry x="630" y="460" width="150" height="50" as="geometry" />
        </mxCell>
        <mxCell id="7" value="GeoNames API" style="shape=ellipse;fillColor=#FFFFFF;strokeColor=#000000;" parent="1" vertex="1">
          <mxGeometry x="615" y="140" width="180" height="60" as="geometry" />
        </mxCell>
        <mxCell id="8" value="OpenWeather API" style="shape=ellipse;fillColor=#FFFFFF;strokeColor=#000000;" parent="1" vertex="1">
          <mxGeometry x="605" y="560" width="200" height="60" as="geometry" />
        </mxCell>
        <mxCell id="f37e78AFyxO9xPXXlA5E-18" style="edgeStyle=orthogonalEdgeStyle;rounded=0;orthogonalLoop=1;jettySize=auto;html=1;entryX=0;entryY=0.5;entryDx=0;entryDy=0;" edge="1" parent="1" source="9" target="f37e78AFyxO9xPXXlA5E-17">
          <mxGeometry relative="1" as="geometry" />
        </mxCell>
        <mxCell id="9" value="City Data Store" style="shape=datastore;fillColor=#FFFFFF;strokeColor=#000000;" parent="1" vertex="1">
          <mxGeometry x="900" y="300" width="140" height="50" as="geometry" />
        </mxCell>
        <mxCell id="f37e78AFyxO9xPXXlA5E-19" style="edgeStyle=orthogonalEdgeStyle;rounded=0;orthogonalLoop=1;jettySize=auto;html=1;entryX=0;entryY=0.5;entryDx=0;entryDy=0;" edge="1" parent="1" source="10" target="f37e78AFyxO9xPXXlA5E-17">
          <mxGeometry relative="1" as="geometry" />
        </mxCell>
        <mxCell id="10" value="Weather Data Store" style="shape=datastore;fillColor=#FFFFFF;strokeColor=#000000;" parent="1" vertex="1">
          <mxGeometry x="900" y="410" width="140" height="50" as="geometry" />
        </mxCell>
        <mxCell id="e1" value="Select City" style="edgeStyle=elbowEdgeStyle;endArrow=block;" parent="1" source="2" target="3" edge="1">
          <mxGeometry relative="1" as="geometry" />
        </mxCell>
        <mxCell id="e2" value="City Selected" style="edgeStyle=elbowEdgeStyle;endArrow=block;" parent="1" source="3" target="4" edge="1">
          <mxGeometry relative="1" as="geometry" />
        </mxCell>
        <mxCell id="e3" value="Request City Data" style="edgeStyle=elbowEdgeStyle;endArrow=block;" parent="1" source="4" target="5" edge="1">
          <mxGeometry relative="1" as="geometry" />
        </mxCell>
        <mxCell id="e4" value="Request Weather Data" style="edgeStyle=elbowEdgeStyle;endArrow=block;" parent="1" source="4" target="6" edge="1">
          <mxGeometry relative="1" as="geometry" />
        </mxCell>
        <mxCell id="e5" value="API Call" style="edgeStyle=elbowEdgeStyle;endArrow=block;" parent="1" source="5" target="7" edge="1">
          <mxGeometry relative="1" as="geometry" />
        </mxCell>
        <mxCell id="e6" value="City Data" style="edgeStyle=elbowEdgeStyle;endArrow=block;" parent="1" source="7" target="5" edge="1">
          <mxGeometry relative="1" as="geometry" />
        </mxCell>
        <mxCell id="e7" value="API Call" style="edgeStyle=elbowEdgeStyle;endArrow=block;" parent="1" source="6" target="8" edge="1">
          <mxGeometry relative="1" as="geometry" />
        </mxCell>
        <mxCell id="e8" value="Weather Data" style="edgeStyle=elbowEdgeStyle;endArrow=block;" parent="1" source="8" target="6" edge="1">
          <mxGeometry relative="1" as="geometry" />
        </mxCell>
        <mxCell id="e9" value="Store Data" style="edgeStyle=elbowEdgeStyle;endArrow=block;" parent="1" source="5" target="9" edge="1">
          <mxGeometry relative="1" as="geometry" />
        </mxCell>
        <mxCell id="e10" value="Store Data" style="edgeStyle=elbowEdgeStyle;endArrow=block;" parent="1" source="6" target="10" edge="1">
          <mxGeometry relative="1" as="geometry" />
        </mxCell>
        <mxCell id="f37e78AFyxO9xPXXlA5E-17" value="User&lt;div&gt;(View Info Page)&lt;/div&gt;" style="rounded=1;whiteSpace=wrap;html=1;" vertex="1" parent="1">
          <mxGeometry x="1100" y="350" width="120" height="60" as="geometry" />
        </mxCell>
      </root>
    </mxGraphModel>
  </diagram>
</mxfile>
